<svg xmlns="http://www.w3.org/2000/svg" viewBox="0 0 100 100" width="100%" height="100%">
  <!-- WhatsApp Green Squircle (Zero White Background) -->
  <rect width="100" height="100" rx="22" fill="#25D366"/>
  <!-- WhatsApp Speech Bubble and Handset -->
  <path fill="#FFFFFF" d="M50 18c-17.7 0-32 14.3-32 32 0 5.6 1.5 11.2 4.3 16.1L18 82l16.3-4.3c4.7 2.6 10.1 3.9 15.7 3.9 17.7 0 32-14.3 32-32s-14.3-32-32-32zm18.7 45.4c-.8 2.2-4 4.3-5.5 4.6-1.5.3-3.4.4-5.5-.3-1.3-.4-3-1-5.2-2-9.2-3.9-15.1-13.3-15.6-13.9-.5-.6-3.8-5-3.8-9.6s2.4-6.8 3.2-7.8c.8-.9 1.8-1.2 2.4-1.2h1.7c.6 0 1.3 0 1.9 1.4.6 1.5 2.2 5.3 2.4 5.7.2.4.3.9.1 1.4-.2.5-.4.8-.8 1.2-.4.4-.8.9-1.2 1.2-.4.4-.8.8-.4 1.6.5.8 2.1 3.5 4.5 5.6 3.1 2.8 5.7 3.7 6.6 4.1.8.4 1.3.4 1.8-.2.5-.6 2.1-2.5 2.7-3.3.6-.8 1.2-.7 2-.4.8.3 5.3 2.5 6.2 3 .9.4 1.5.7 1.7 1.1.2.3.2 1.9-.6 4.1z"/>
</svg>
